<mxfile host="app.diagrams.net" modified="2021-03-10T06:00:36.949Z" agent="5.0 (Windows NT 10.0; Win64; x64) AppleWebKit/537.36 (KHTML, like Gecko) Chrome/88.0.4324.152 YaBrowser/21.2.2.101 Yowser/2.5 Safari/537.36" etag="Aaieh3GtM4FYWu1-f-wR" version="14.4.3" type="github">
  <diagram id="R2lEEEUBdFMjLlhIrx00" name="Page-1">
    <mxGraphModel dx="2005" dy="674" grid="1" gridSize="10" guides="1" tooltips="1" connect="1" arrows="1" fold="1" page="1" pageScale="1" pageWidth="850" pageHeight="1100" math="0" shadow="0" extFonts="Permanent Marker^https://fonts.googleapis.com/css?family=Permanent+Marker">
      <root>
        <mxCell id="0" />
        <mxCell id="1" parent="0" />
        <mxCell id="8cE640ZSg2e-GYgHkVEG-1" value="Посты" style="rounded=1;arcSize=10;whiteSpace=wrap;html=1;align=center;" vertex="1" parent="1">
          <mxGeometry x="110" y="130" width="100" height="40" as="geometry" />
        </mxCell>
        <mxCell id="8cE640ZSg2e-GYgHkVEG-2" value="ID&lt;br&gt;Заголовок&lt;br&gt;Информация&lt;br&gt;Картинка" style="whiteSpace=wrap;html=1;align=left;" vertex="1" parent="1">
          <mxGeometry x="110" y="170" width="100" height="70" as="geometry" />
        </mxCell>
        <mxCell id="8cE640ZSg2e-GYgHkVEG-3" value="ASPNet роли пользователей" style="rounded=1;arcSize=10;whiteSpace=wrap;html=1;align=center;" vertex="1" parent="1">
          <mxGeometry x="420" y="95" width="100" height="40" as="geometry" />
        </mxCell>
        <mxCell id="8cE640ZSg2e-GYgHkVEG-4" value="ID&lt;br&gt;Имя" style="whiteSpace=wrap;html=1;align=left;" vertex="1" parent="1">
          <mxGeometry x="420" y="135" width="100" height="70" as="geometry" />
        </mxCell>
        <mxCell id="8cE640ZSg2e-GYgHkVEG-5" value="AspNet пользовательские клеймы" style="rounded=1;arcSize=10;whiteSpace=wrap;html=1;align=center;" vertex="1" parent="1">
          <mxGeometry x="-30" y="310" width="100" height="40" as="geometry" />
        </mxCell>
        <mxCell id="8cE640ZSg2e-GYgHkVEG-6" value="ID&lt;br&gt;UserId&lt;br&gt;Тип клейма&lt;br&gt;Значение клейма" style="whiteSpace=wrap;html=1;align=left;" vertex="1" parent="1">
          <mxGeometry x="-30" y="350" width="100" height="70" as="geometry" />
        </mxCell>
        <mxCell id="8cE640ZSg2e-GYgHkVEG-7" value="ASPNET&lt;br&gt;логины пользователей" style="rounded=1;arcSize=10;whiteSpace=wrap;html=1;align=center;" vertex="1" parent="1">
          <mxGeometry x="440" y="470" width="100" height="40" as="geometry" />
        </mxCell>
        <mxCell id="8cE640ZSg2e-GYgHkVEG-8" value="ЛогинПровайдер&lt;br&gt;КлючПровайдера&lt;br&gt;UserId" style="whiteSpace=wrap;html=1;align=left;" vertex="1" parent="1">
          <mxGeometry x="440" y="510" width="100" height="70" as="geometry" />
        </mxCell>
        <mxCell id="8cE640ZSg2e-GYgHkVEG-9" value="ASPNET&lt;br&gt;РолиПОльзователи" style="rounded=1;arcSize=10;whiteSpace=wrap;html=1;align=center;" vertex="1" parent="1">
          <mxGeometry x="420" y="300" width="100" height="40" as="geometry" />
        </mxCell>
        <mxCell id="8cE640ZSg2e-GYgHkVEG-10" value="UserID&lt;br&gt;RoleId" style="whiteSpace=wrap;html=1;align=left;" vertex="1" parent="1">
          <mxGeometry x="420" y="340" width="100" height="70" as="geometry" />
        </mxCell>
        <mxCell id="8cE640ZSg2e-GYgHkVEG-13" value="ASPNET&lt;br&gt;Пользователи" style="rounded=1;arcSize=10;whiteSpace=wrap;html=1;align=center;" vertex="1" parent="1">
          <mxGeometry x="160" y="310" width="210" height="40" as="geometry" />
        </mxCell>
        <mxCell id="8cE640ZSg2e-GYgHkVEG-14" value="ID&lt;br&gt;почта&lt;br&gt;Почта подтвержена&lt;br&gt;Хэш пароля&lt;br&gt;SecurityStamp&lt;br&gt;Номер телефона&lt;br&gt;Номер Телефона подтвержден&lt;br&gt;Двух-факторная аутентификация&lt;br&gt;Конец блокировки&lt;br&gt;Блокировка включена&lt;br&gt;Количество неудачныъ входов&lt;br&gt;Имя польхователя" style="whiteSpace=wrap;html=1;align=left;" vertex="1" parent="1">
          <mxGeometry x="160" y="350" width="210" height="210" as="geometry" />
        </mxCell>
        <mxCell id="8cE640ZSg2e-GYgHkVEG-15" value="" style="edgeStyle=entityRelationEdgeStyle;fontSize=12;html=1;endArrow=ERoneToMany;exitX=1;exitY=0.5;exitDx=0;exitDy=0;entryX=1;entryY=0.25;entryDx=0;entryDy=0;" edge="1" parent="1" source="8cE640ZSg2e-GYgHkVEG-4" target="8cE640ZSg2e-GYgHkVEG-10">
          <mxGeometry width="100" height="100" relative="1" as="geometry">
            <mxPoint x="330" y="600" as="sourcePoint" />
            <mxPoint x="430" y="500" as="targetPoint" />
          </mxGeometry>
        </mxCell>
        <mxCell id="8cE640ZSg2e-GYgHkVEG-16" value="" style="edgeStyle=entityRelationEdgeStyle;fontSize=12;html=1;endArrow=ERoneToMany;exitX=1;exitY=0.25;exitDx=0;exitDy=0;entryX=0;entryY=0.5;entryDx=0;entryDy=0;" edge="1" parent="1" source="8cE640ZSg2e-GYgHkVEG-14" target="8cE640ZSg2e-GYgHkVEG-10">
          <mxGeometry width="100" height="100" relative="1" as="geometry">
            <mxPoint x="530" y="180" as="sourcePoint" />
            <mxPoint x="530" y="367.5" as="targetPoint" />
          </mxGeometry>
        </mxCell>
        <mxCell id="8cE640ZSg2e-GYgHkVEG-17" value="" style="edgeStyle=entityRelationEdgeStyle;fontSize=12;html=1;endArrow=ERoneToMany;exitX=0;exitY=0.25;exitDx=0;exitDy=0;entryX=1;entryY=0.5;entryDx=0;entryDy=0;" edge="1" parent="1" source="8cE640ZSg2e-GYgHkVEG-8" target="8cE640ZSg2e-GYgHkVEG-14">
          <mxGeometry width="100" height="100" relative="1" as="geometry">
            <mxPoint x="540" y="190" as="sourcePoint" />
            <mxPoint x="540" y="377.5" as="targetPoint" />
          </mxGeometry>
        </mxCell>
        <mxCell id="8cE640ZSg2e-GYgHkVEG-18" value="" style="edgeStyle=entityRelationEdgeStyle;fontSize=12;html=1;endArrow=ERoneToMany;exitX=0;exitY=0.5;exitDx=0;exitDy=0;entryX=1;entryY=0.5;entryDx=0;entryDy=0;" edge="1" parent="1" source="8cE640ZSg2e-GYgHkVEG-14" target="8cE640ZSg2e-GYgHkVEG-6">
          <mxGeometry width="100" height="100" relative="1" as="geometry">
            <mxPoint x="450" y="537.5" as="sourcePoint" />
            <mxPoint x="320" y="465" as="targetPoint" />
          </mxGeometry>
        </mxCell>
        <mxCell id="8cE640ZSg2e-GYgHkVEG-19" value="" style="edgeStyle=entityRelationEdgeStyle;fontSize=12;html=1;endArrow=ERoneToMany;exitX=0.5;exitY=0;exitDx=0;exitDy=0;entryX=1;entryY=0.5;entryDx=0;entryDy=0;" edge="1" parent="1" source="8cE640ZSg2e-GYgHkVEG-13" target="8cE640ZSg2e-GYgHkVEG-2">
          <mxGeometry width="100" height="100" relative="1" as="geometry">
            <mxPoint x="170" y="465" as="sourcePoint" />
            <mxPoint x="80" y="395" as="targetPoint" />
          </mxGeometry>
        </mxCell>
        <mxCell id="8cE640ZSg2e-GYgHkVEG-23" value="ID" style="ellipse;whiteSpace=wrap;html=1;align=center;fontStyle=4;" vertex="1" parent="1">
          <mxGeometry x="-210" y="1250" width="100" height="40" as="geometry" />
        </mxCell>
        <mxCell id="8cE640ZSg2e-GYgHkVEG-24" value="ТипКлейма" style="ellipse;whiteSpace=wrap;html=1;align=center;" vertex="1" parent="1">
          <mxGeometry x="-60" y="1240" width="100" height="40" as="geometry" />
        </mxCell>
        <mxCell id="8cE640ZSg2e-GYgHkVEG-25" value="UserId" style="ellipse;whiteSpace=wrap;html=1;align=center;" vertex="1" parent="1">
          <mxGeometry x="50" y="1140" width="100" height="40" as="geometry" />
        </mxCell>
        <mxCell id="8cE640ZSg2e-GYgHkVEG-26" value="ЗначениеКлейма" style="ellipse;whiteSpace=wrap;html=1;align=center;" vertex="1" parent="1">
          <mxGeometry x="50" y="1210" width="100" height="40" as="geometry" />
        </mxCell>
        <mxCell id="8cE640ZSg2e-GYgHkVEG-27" value="" style="endArrow=none;html=1;rounded=0;exitX=0.5;exitY=0;exitDx=0;exitDy=0;entryX=0.5;entryY=1;entryDx=0;entryDy=0;" edge="1" parent="1" source="8cE640ZSg2e-GYgHkVEG-86" target="8cE640ZSg2e-GYgHkVEG-85">
          <mxGeometry relative="1" as="geometry">
            <mxPoint x="-270" y="1230" as="sourcePoint" />
            <mxPoint x="-110" y="1230" as="targetPoint" />
          </mxGeometry>
        </mxCell>
        <mxCell id="8cE640ZSg2e-GYgHkVEG-28" value="" style="endArrow=none;html=1;rounded=0;exitX=0.5;exitY=0;exitDx=0;exitDy=0;entryX=0.5;entryY=1;entryDx=0;entryDy=0;" edge="1" parent="1" source="8cE640ZSg2e-GYgHkVEG-22" target="8cE640ZSg2e-GYgHkVEG-24">
          <mxGeometry relative="1" as="geometry">
            <mxPoint x="-130" y="1140" as="sourcePoint" />
            <mxPoint x="-60" y="1180" as="targetPoint" />
          </mxGeometry>
        </mxCell>
        <mxCell id="8cE640ZSg2e-GYgHkVEG-29" value="" style="endArrow=none;html=1;rounded=0;exitX=1;exitY=0.5;exitDx=0;exitDy=0;entryX=0;entryY=0.5;entryDx=0;entryDy=0;" edge="1" parent="1" source="8cE640ZSg2e-GYgHkVEG-22" target="8cE640ZSg2e-GYgHkVEG-25">
          <mxGeometry relative="1" as="geometry">
            <mxPoint x="-60" y="1180" as="sourcePoint" />
            <mxPoint x="30" y="1140" as="targetPoint" />
          </mxGeometry>
        </mxCell>
        <mxCell id="8cE640ZSg2e-GYgHkVEG-30" value="" style="endArrow=none;html=1;rounded=0;exitX=1;exitY=0.5;exitDx=0;exitDy=0;entryX=0;entryY=0.5;entryDx=0;entryDy=0;" edge="1" parent="1" source="8cE640ZSg2e-GYgHkVEG-22" target="8cE640ZSg2e-GYgHkVEG-26">
          <mxGeometry relative="1" as="geometry">
            <mxPoint x="-10" y="1200" as="sourcePoint" />
            <mxPoint x="60" y="1170" as="targetPoint" />
          </mxGeometry>
        </mxCell>
        <mxCell id="8cE640ZSg2e-GYgHkVEG-31" value="ASPNET&lt;br&gt;Пользователи" style="rounded=1;arcSize=10;whiteSpace=wrap;html=1;align=center;" vertex="1" parent="1">
          <mxGeometry x="-130" y="840" width="100" height="40" as="geometry" />
        </mxCell>
        <mxCell id="8cE640ZSg2e-GYgHkVEG-32" value="ID" style="ellipse;whiteSpace=wrap;html=1;align=center;fontStyle=4;" vertex="1" parent="1">
          <mxGeometry x="-320" y="720" width="100" height="40" as="geometry" />
        </mxCell>
        <mxCell id="8cE640ZSg2e-GYgHkVEG-33" value="Почта" style="ellipse;whiteSpace=wrap;html=1;align=center;" vertex="1" parent="1">
          <mxGeometry x="-100" y="710" width="100" height="40" as="geometry" />
        </mxCell>
        <mxCell id="8cE640ZSg2e-GYgHkVEG-35" value="ХэшПароля" style="ellipse;whiteSpace=wrap;html=1;align=center;" vertex="1" parent="1">
          <mxGeometry x="10" y="910" width="100" height="40" as="geometry" />
        </mxCell>
        <mxCell id="8cE640ZSg2e-GYgHkVEG-36" value="" style="endArrow=none;html=1;rounded=0;exitX=0.5;exitY=1;exitDx=0;exitDy=0;entryX=0.5;entryY=0;entryDx=0;entryDy=0;" edge="1" parent="1" source="8cE640ZSg2e-GYgHkVEG-32" target="8cE640ZSg2e-GYgHkVEG-31">
          <mxGeometry relative="1" as="geometry">
            <mxPoint x="-280" y="900" as="sourcePoint" />
            <mxPoint x="-120" y="900" as="targetPoint" />
          </mxGeometry>
        </mxCell>
        <mxCell id="8cE640ZSg2e-GYgHkVEG-37" value="" style="endArrow=none;html=1;rounded=0;exitX=0.5;exitY=0;exitDx=0;exitDy=0;entryX=0.5;entryY=1;entryDx=0;entryDy=0;" edge="1" parent="1" source="8cE640ZSg2e-GYgHkVEG-31" target="8cE640ZSg2e-GYgHkVEG-33">
          <mxGeometry relative="1" as="geometry">
            <mxPoint x="-140" y="810" as="sourcePoint" />
            <mxPoint x="-70" y="850" as="targetPoint" />
          </mxGeometry>
        </mxCell>
        <mxCell id="8cE640ZSg2e-GYgHkVEG-38" value="" style="endArrow=none;html=1;rounded=0;entryX=0;entryY=0.5;entryDx=0;entryDy=0;exitX=1;exitY=0.25;exitDx=0;exitDy=0;" edge="1" parent="1" source="8cE640ZSg2e-GYgHkVEG-31" target="8cE640ZSg2e-GYgHkVEG-34">
          <mxGeometry relative="1" as="geometry">
            <mxPoint x="-30" y="860" as="sourcePoint" />
            <mxPoint x="20" y="810" as="targetPoint" />
          </mxGeometry>
        </mxCell>
        <mxCell id="8cE640ZSg2e-GYgHkVEG-39" value="" style="endArrow=none;html=1;rounded=0;exitX=1;exitY=0.5;exitDx=0;exitDy=0;entryX=0;entryY=0.5;entryDx=0;entryDy=0;" edge="1" parent="1" source="8cE640ZSg2e-GYgHkVEG-31" target="8cE640ZSg2e-GYgHkVEG-35">
          <mxGeometry relative="1" as="geometry">
            <mxPoint x="-20" y="870" as="sourcePoint" />
            <mxPoint x="50" y="840" as="targetPoint" />
          </mxGeometry>
        </mxCell>
        <mxCell id="8cE640ZSg2e-GYgHkVEG-41" value="" style="endArrow=none;html=1;rounded=0;exitX=1;exitY=0.5;exitDx=0;exitDy=0;entryX=0;entryY=0.5;entryDx=0;entryDy=0;" edge="1" parent="1" target="8cE640ZSg2e-GYgHkVEG-40" source="8cE640ZSg2e-GYgHkVEG-31">
          <mxGeometry relative="1" as="geometry">
            <mxPoint x="70" y="830" as="sourcePoint" />
            <mxPoint x="150" y="810" as="targetPoint" />
          </mxGeometry>
        </mxCell>
        <mxCell id="8cE640ZSg2e-GYgHkVEG-42" value="ТелНомер&lt;span style=&quot;color: rgba(0 , 0 , 0 , 0) ; font-family: monospace ; font-size: 0px&quot;&gt;%3CmxGraphModel%3E%3Croot%3E%3CmxCell%20id%3D%220%22%2F%3E%3CmxCell%20id%3D%221%22%20parent%3D%220%22%2F%3E%3CmxCell%20id%3D%222%22%20value%3D%22%D0%A5%D1%8D%D1%88%D0%9F%D0%B0%D1%80%D0%BE%D0%BB%D1%8F%22%20style%3D%22ellipse%3BwhiteSpace%3Dwrap%3Bhtml%3D1%3Balign%3Dcenter%3B%22%20vertex%3D%221%22%20parent%3D%221%22%3E%3CmxGeometry%20x%3D%2240%22%20y%3D%22880%22%20width%3D%22100%22%20height%3D%2240%22%20as%3D%22geometry%22%2F%3E%3C%2FmxCell%3E%3CmxCell%20id%3D%223%22%20value%3D%22%22%20style%3D%22endArrow%3Dnone%3Bhtml%3D1%3Brounded%3D0%3BexitX%3D1%3BexitY%3D0.5%3BexitDx%3D0%3BexitDy%3D0%3BentryX%3D0%3BentryY%3D0.5%3BentryDx%3D0%3BentryDy%3D0%3B%22%20edge%3D%221%22%20target%3D%222%22%20parent%3D%221%22%3E%3CmxGeometry%20relative%3D%221%22%20as%3D%22geometry%22%3E%3CmxPoint%20x%3D%22-30%22%20y%3D%22860%22%20as%3D%22sourcePoint%22%2F%3E%3CmxPoint%20x%3D%2250%22%20y%3D%22840%22%20as%3D%22targetPoint%22%2F%3E%3C%2FmxGeometry%3E%3C%2FmxCell%3E%3C%2Froot%3E%3C%2FmxGraphModel%3E&lt;/span&gt;" style="ellipse;whiteSpace=wrap;html=1;align=center;" vertex="1" parent="1">
          <mxGeometry x="-120" y="670" width="100" height="40" as="geometry" />
        </mxCell>
        <mxCell id="8cE640ZSg2e-GYgHkVEG-43" value="" style="endArrow=none;html=1;rounded=0;exitX=0.5;exitY=0;exitDx=0;exitDy=0;entryX=0;entryY=0.5;entryDx=0;entryDy=0;" edge="1" parent="1" target="8cE640ZSg2e-GYgHkVEG-42" source="8cE640ZSg2e-GYgHkVEG-31">
          <mxGeometry relative="1" as="geometry">
            <mxPoint x="-180" y="700" as="sourcePoint" />
            <mxPoint x="-100" y="680" as="targetPoint" />
          </mxGeometry>
        </mxCell>
        <mxCell id="8cE640ZSg2e-GYgHkVEG-44" value="НомерТелПодтвержен" style="ellipse;whiteSpace=wrap;html=1;align=center;" vertex="1" parent="1">
          <mxGeometry x="-370" y="790" width="140" height="60" as="geometry" />
        </mxCell>
        <mxCell id="8cE640ZSg2e-GYgHkVEG-46" value="" style="endArrow=none;html=1;rounded=0;exitX=0.982;exitY=0.661;exitDx=0;exitDy=0;entryX=0;entryY=0.5;entryDx=0;entryDy=0;exitPerimeter=0;" edge="1" parent="1" source="8cE640ZSg2e-GYgHkVEG-44" target="8cE640ZSg2e-GYgHkVEG-31">
          <mxGeometry relative="1" as="geometry">
            <mxPoint x="-140" y="810" as="sourcePoint" />
            <mxPoint x="-70" y="850" as="targetPoint" />
          </mxGeometry>
        </mxCell>
        <mxCell id="8cE640ZSg2e-GYgHkVEG-47" value="ДвухФактАут" style="ellipse;whiteSpace=wrap;html=1;align=center;" vertex="1" parent="1">
          <mxGeometry x="-240" y="690" width="100" height="40" as="geometry" />
        </mxCell>
        <mxCell id="8cE640ZSg2e-GYgHkVEG-48" value="" style="endArrow=none;html=1;rounded=0;exitX=0.574;exitY=-0.014;exitDx=0;exitDy=0;entryX=1;entryY=1;entryDx=0;entryDy=0;exitPerimeter=0;" edge="1" parent="1" source="8cE640ZSg2e-GYgHkVEG-31" target="8cE640ZSg2e-GYgHkVEG-47">
          <mxGeometry relative="1" as="geometry">
            <mxPoint x="-70" y="850" as="sourcePoint" />
            <mxPoint x="-100" y="750" as="targetPoint" />
          </mxGeometry>
        </mxCell>
        <mxCell id="8cE640ZSg2e-GYgHkVEG-49" value="КонецБлокировки" style="ellipse;whiteSpace=wrap;html=1;align=center;" vertex="1" parent="1">
          <mxGeometry x="10" y="710" width="100" height="40" as="geometry" />
        </mxCell>
        <mxCell id="8cE640ZSg2e-GYgHkVEG-50" value="" style="endArrow=none;html=1;rounded=0;exitX=1;exitY=0.5;exitDx=0;exitDy=0;entryX=0;entryY=1;entryDx=0;entryDy=0;" edge="1" parent="1" source="8cE640ZSg2e-GYgHkVEG-31" target="8cE640ZSg2e-GYgHkVEG-49">
          <mxGeometry relative="1" as="geometry">
            <mxPoint x="-20" y="870" as="sourcePoint" />
            <mxPoint x="50" y="840" as="targetPoint" />
          </mxGeometry>
        </mxCell>
        <mxCell id="8cE640ZSg2e-GYgHkVEG-52" value="БлокировкаВкл" style="ellipse;whiteSpace=wrap;html=1;align=center;" vertex="1" parent="1">
          <mxGeometry x="200" y="770" width="100" height="40" as="geometry" />
        </mxCell>
        <mxCell id="8cE640ZSg2e-GYgHkVEG-53" value="" style="endArrow=none;html=1;rounded=0;exitX=1;exitY=0.5;exitDx=0;exitDy=0;entryX=0;entryY=0.5;entryDx=0;entryDy=0;" edge="1" parent="1" source="8cE640ZSg2e-GYgHkVEG-31" target="8cE640ZSg2e-GYgHkVEG-52">
          <mxGeometry relative="1" as="geometry">
            <mxPoint x="-20" y="870" as="sourcePoint" />
            <mxPoint x="84.64466094067257" y="804.1421356237311" as="targetPoint" />
          </mxGeometry>
        </mxCell>
        <mxCell id="8cE640ZSg2e-GYgHkVEG-54" value="Кол-воНеудач" style="ellipse;whiteSpace=wrap;html=1;align=center;" vertex="1" parent="1">
          <mxGeometry x="290" y="800" width="100" height="40" as="geometry" />
        </mxCell>
        <mxCell id="8cE640ZSg2e-GYgHkVEG-55" value="" style="endArrow=none;html=1;rounded=0;exitX=1;exitY=0.75;exitDx=0;exitDy=0;entryX=0;entryY=0.5;entryDx=0;entryDy=0;" edge="1" parent="1" source="8cE640ZSg2e-GYgHkVEG-31" target="8cE640ZSg2e-GYgHkVEG-54">
          <mxGeometry relative="1" as="geometry">
            <mxPoint x="-20" y="870" as="sourcePoint" />
            <mxPoint x="160" y="810" as="targetPoint" />
          </mxGeometry>
        </mxCell>
        <mxCell id="8cE640ZSg2e-GYgHkVEG-56" value="ИмяПользователя" style="ellipse;whiteSpace=wrap;html=1;align=center;" vertex="1" parent="1">
          <mxGeometry x="140" y="900" width="100" height="40" as="geometry" />
        </mxCell>
        <mxCell id="8cE640ZSg2e-GYgHkVEG-57" value="" style="endArrow=none;html=1;rounded=0;exitX=1;exitY=0.5;exitDx=0;exitDy=0;entryX=0;entryY=0.5;entryDx=0;entryDy=0;" edge="1" parent="1" source="8cE640ZSg2e-GYgHkVEG-31" target="8cE640ZSg2e-GYgHkVEG-56">
          <mxGeometry relative="1" as="geometry">
            <mxPoint x="-20" y="880" as="sourcePoint" />
            <mxPoint x="190" y="850" as="targetPoint" />
          </mxGeometry>
        </mxCell>
        <mxCell id="8cE640ZSg2e-GYgHkVEG-59" value="UserId" style="ellipse;whiteSpace=wrap;html=1;align=center;fontStyle=4;" vertex="1" parent="1">
          <mxGeometry x="-370" y="890" width="100" height="40" as="geometry" />
        </mxCell>
        <mxCell id="8cE640ZSg2e-GYgHkVEG-60" value="Логин провайдер" style="ellipse;whiteSpace=wrap;html=1;align=center;" vertex="1" parent="1">
          <mxGeometry x="-440" y="950" width="100" height="40" as="geometry" />
        </mxCell>
        <mxCell id="8cE640ZSg2e-GYgHkVEG-61" value="КлючПровайдера" style="ellipse;whiteSpace=wrap;html=1;align=center;" vertex="1" parent="1">
          <mxGeometry x="-410" y="1040" width="100" height="40" as="geometry" />
        </mxCell>
        <mxCell id="8cE640ZSg2e-GYgHkVEG-63" value="" style="endArrow=none;html=1;rounded=0;exitX=0.5;exitY=1;exitDx=0;exitDy=0;entryX=0.5;entryY=0;entryDx=0;entryDy=0;" edge="1" parent="1" source="8cE640ZSg2e-GYgHkVEG-59" target="8cE640ZSg2e-GYgHkVEG-58">
          <mxGeometry relative="1" as="geometry">
            <mxPoint x="-450" y="1030" as="sourcePoint" />
            <mxPoint x="-290" y="1030" as="targetPoint" />
          </mxGeometry>
        </mxCell>
        <mxCell id="8cE640ZSg2e-GYgHkVEG-64" value="" style="endArrow=none;html=1;rounded=0;exitX=0.5;exitY=0;exitDx=0;exitDy=0;entryX=0.5;entryY=1;entryDx=0;entryDy=0;" edge="1" parent="1" source="8cE640ZSg2e-GYgHkVEG-58" target="8cE640ZSg2e-GYgHkVEG-60">
          <mxGeometry relative="1" as="geometry">
            <mxPoint x="-310" y="940" as="sourcePoint" />
            <mxPoint x="-240" y="980" as="targetPoint" />
          </mxGeometry>
        </mxCell>
        <mxCell id="8cE640ZSg2e-GYgHkVEG-65" value="" style="endArrow=none;html=1;rounded=0;exitX=1;exitY=0.5;exitDx=0;exitDy=0;entryX=0;entryY=0.5;entryDx=0;entryDy=0;" edge="1" parent="1" source="8cE640ZSg2e-GYgHkVEG-58" target="8cE640ZSg2e-GYgHkVEG-61">
          <mxGeometry relative="1" as="geometry">
            <mxPoint x="-240" y="980" as="sourcePoint" />
            <mxPoint x="-150" y="940" as="targetPoint" />
          </mxGeometry>
        </mxCell>
        <mxCell id="8cE640ZSg2e-GYgHkVEG-68" value="RoleId" style="ellipse;whiteSpace=wrap;html=1;align=center;fontStyle=4;" vertex="1" parent="1">
          <mxGeometry x="240" y="1050" width="100" height="40" as="geometry" />
        </mxCell>
        <mxCell id="8cE640ZSg2e-GYgHkVEG-71" value="" style="endArrow=none;html=1;rounded=0;exitX=0.5;exitY=1;exitDx=0;exitDy=0;entryX=0.5;entryY=0;entryDx=0;entryDy=0;" edge="1" parent="1" source="8cE640ZSg2e-GYgHkVEG-68" target="8cE640ZSg2e-GYgHkVEG-67">
          <mxGeometry relative="1" as="geometry">
            <mxPoint x="-60" y="1090" as="sourcePoint" />
            <mxPoint x="100" y="1090" as="targetPoint" />
          </mxGeometry>
        </mxCell>
        <mxCell id="8cE640ZSg2e-GYgHkVEG-72" value="" style="endArrow=none;html=1;rounded=0;exitX=0.5;exitY=0;exitDx=0;exitDy=0;entryX=0.5;entryY=1;entryDx=0;entryDy=0;" edge="1" parent="1" source="8cE640ZSg2e-GYgHkVEG-67" target="8cE640ZSg2e-GYgHkVEG-74">
          <mxGeometry relative="1" as="geometry">
            <mxPoint x="80" y="1000" as="sourcePoint" />
            <mxPoint x="230" y="990" as="targetPoint" />
          </mxGeometry>
        </mxCell>
        <mxCell id="8cE640ZSg2e-GYgHkVEG-74" value="UserId" style="ellipse;whiteSpace=wrap;html=1;align=center;fontStyle=4;" vertex="1" parent="1">
          <mxGeometry x="280" y="1000" width="100" height="40" as="geometry" />
        </mxCell>
        <mxCell id="8cE640ZSg2e-GYgHkVEG-77" value="" style="endArrow=none;html=1;rounded=0;exitX=0.5;exitY=1;exitDx=0;exitDy=0;entryX=0.5;entryY=0;entryDx=0;entryDy=0;" edge="1" parent="1" target="8cE640ZSg2e-GYgHkVEG-75">
          <mxGeometry relative="1" as="geometry">
            <mxPoint x="510" y="990" as="sourcePoint" />
            <mxPoint x="110" y="1100" as="targetPoint" />
          </mxGeometry>
        </mxCell>
        <mxCell id="8cE640ZSg2e-GYgHkVEG-78" value="" style="endArrow=none;html=1;rounded=0;exitX=0.5;exitY=0;exitDx=0;exitDy=0;entryX=0.5;entryY=1;entryDx=0;entryDy=0;" edge="1" parent="1" source="8cE640ZSg2e-GYgHkVEG-75" target="8cE640ZSg2e-GYgHkVEG-79">
          <mxGeometry relative="1" as="geometry">
            <mxPoint x="90" y="1010" as="sourcePoint" />
            <mxPoint x="240" y="1000" as="targetPoint" />
          </mxGeometry>
        </mxCell>
        <mxCell id="8cE640ZSg2e-GYgHkVEG-79" value="Id" style="ellipse;whiteSpace=wrap;html=1;align=center;fontStyle=4;" vertex="1" parent="1">
          <mxGeometry x="390" y="890" width="100" height="40" as="geometry" />
        </mxCell>
        <mxCell id="8cE640ZSg2e-GYgHkVEG-80" value="Имя" style="ellipse;whiteSpace=wrap;html=1;align=center;" vertex="1" parent="1">
          <mxGeometry x="500" y="970" width="100" height="40" as="geometry" />
        </mxCell>
        <mxCell id="8cE640ZSg2e-GYgHkVEG-22" value="AspNet пользовательские клеймы" style="rounded=1;arcSize=10;whiteSpace=wrap;html=1;align=center;" vertex="1" parent="1">
          <mxGeometry x="-220" y="1160" width="100" height="40" as="geometry" />
        </mxCell>
        <mxCell id="8cE640ZSg2e-GYgHkVEG-67" value="ASPNET&lt;br&gt;РолиПОльзователи" style="rounded=1;arcSize=10;whiteSpace=wrap;html=1;align=center;" vertex="1" parent="1">
          <mxGeometry x="90" y="1030" width="100" height="40" as="geometry" />
        </mxCell>
        <mxCell id="8cE640ZSg2e-GYgHkVEG-75" value="ASPNet роли пользователей" style="rounded=1;arcSize=10;whiteSpace=wrap;html=1;align=center;" vertex="1" parent="1">
          <mxGeometry x="280" y="930" width="100" height="40" as="geometry" />
        </mxCell>
        <mxCell id="8cE640ZSg2e-GYgHkVEG-58" value="ASPNET&lt;br&gt;логины пользователей" style="rounded=1;arcSize=10;whiteSpace=wrap;html=1;align=center;" vertex="1" parent="1">
          <mxGeometry x="-300" y="970" width="100" height="40" as="geometry" />
        </mxCell>
        <mxCell id="8cE640ZSg2e-GYgHkVEG-81" value="" style="edgeStyle=entityRelationEdgeStyle;fontSize=12;html=1;endArrow=ERmany;exitX=0.5;exitY=1;exitDx=0;exitDy=0;entryX=1;entryY=0.5;entryDx=0;entryDy=0;" edge="1" parent="1" source="8cE640ZSg2e-GYgHkVEG-31" target="8cE640ZSg2e-GYgHkVEG-58">
          <mxGeometry width="100" height="100" relative="1" as="geometry">
            <mxPoint x="-140" y="1080" as="sourcePoint" />
            <mxPoint x="-40" y="980" as="targetPoint" />
          </mxGeometry>
        </mxCell>
        <mxCell id="8cE640ZSg2e-GYgHkVEG-82" value="" style="edgeStyle=entityRelationEdgeStyle;fontSize=12;html=1;endArrow=ERmany;exitX=0.5;exitY=1;exitDx=0;exitDy=0;entryX=0.5;entryY=0;entryDx=0;entryDy=0;" edge="1" parent="1" source="8cE640ZSg2e-GYgHkVEG-31" target="8cE640ZSg2e-GYgHkVEG-67">
          <mxGeometry width="100" height="100" relative="1" as="geometry">
            <mxPoint x="-70" y="890" as="sourcePoint" />
            <mxPoint x="-190" y="1000" as="targetPoint" />
          </mxGeometry>
        </mxCell>
        <mxCell id="8cE640ZSg2e-GYgHkVEG-83" value="" style="edgeStyle=entityRelationEdgeStyle;fontSize=12;html=1;endArrow=ERmany;entryX=1;entryY=0;entryDx=0;entryDy=0;" edge="1" parent="1" target="8cE640ZSg2e-GYgHkVEG-22">
          <mxGeometry width="100" height="100" relative="1" as="geometry">
            <mxPoint x="-80" y="880" as="sourcePoint" />
            <mxPoint x="150" y="1040" as="targetPoint" />
          </mxGeometry>
        </mxCell>
        <mxCell id="8cE640ZSg2e-GYgHkVEG-84" value="" style="edgeStyle=entityRelationEdgeStyle;fontSize=12;html=1;endArrow=ERmany;exitX=1;exitY=0;exitDx=0;exitDy=0;entryX=0;entryY=0.5;entryDx=0;entryDy=0;" edge="1" parent="1" source="8cE640ZSg2e-GYgHkVEG-67" target="8cE640ZSg2e-GYgHkVEG-75">
          <mxGeometry width="100" height="100" relative="1" as="geometry">
            <mxPoint x="20" y="1080" as="sourcePoint" />
            <mxPoint x="120" y="980" as="targetPoint" />
          </mxGeometry>
        </mxCell>
        <mxCell id="8cE640ZSg2e-GYgHkVEG-85" value="Посты" style="rounded=1;arcSize=10;whiteSpace=wrap;html=1;align=center;" vertex="1" parent="1">
          <mxGeometry x="-430" y="1160" width="100" height="40" as="geometry" />
        </mxCell>
        <mxCell id="8cE640ZSg2e-GYgHkVEG-86" value="ID" style="ellipse;whiteSpace=wrap;html=1;align=center;fontStyle=4;" vertex="1" parent="1">
          <mxGeometry x="-440" y="1250" width="100" height="40" as="geometry" />
        </mxCell>
        <mxCell id="8cE640ZSg2e-GYgHkVEG-87" value="" style="endArrow=none;html=1;rounded=0;exitX=0.5;exitY=0;exitDx=0;exitDy=0;entryX=0.5;entryY=1;entryDx=0;entryDy=0;" edge="1" parent="1" source="8cE640ZSg2e-GYgHkVEG-23" target="8cE640ZSg2e-GYgHkVEG-22">
          <mxGeometry relative="1" as="geometry">
            <mxPoint x="-380" y="1260" as="sourcePoint" />
            <mxPoint x="-370" y="1210" as="targetPoint" />
          </mxGeometry>
        </mxCell>
        <mxCell id="8cE640ZSg2e-GYgHkVEG-88" value="Информация" style="ellipse;whiteSpace=wrap;html=1;align=center;" vertex="1" parent="1">
          <mxGeometry x="-340" y="1250" width="100" height="40" as="geometry" />
        </mxCell>
        <mxCell id="8cE640ZSg2e-GYgHkVEG-89" value="Заголовок" style="ellipse;whiteSpace=wrap;html=1;align=center;" vertex="1" parent="1">
          <mxGeometry x="-550" y="1250" width="100" height="40" as="geometry" />
        </mxCell>
        <mxCell id="8cE640ZSg2e-GYgHkVEG-90" value="Картинка" style="ellipse;whiteSpace=wrap;html=1;align=center;" vertex="1" parent="1">
          <mxGeometry x="-640" y="1220" width="100" height="40" as="geometry" />
        </mxCell>
        <mxCell id="8cE640ZSg2e-GYgHkVEG-91" value="" style="endArrow=none;html=1;rounded=0;exitX=0.5;exitY=1;exitDx=0;exitDy=0;entryX=0.5;entryY=0;entryDx=0;entryDy=0;" edge="1" parent="1" source="8cE640ZSg2e-GYgHkVEG-85" target="8cE640ZSg2e-GYgHkVEG-88">
          <mxGeometry relative="1" as="geometry">
            <mxPoint x="-160" y="1170" as="sourcePoint" />
            <mxPoint y="1290" as="targetPoint" />
          </mxGeometry>
        </mxCell>
        <mxCell id="8cE640ZSg2e-GYgHkVEG-92" value="" style="endArrow=none;html=1;rounded=0;exitX=0.5;exitY=1;exitDx=0;exitDy=0;entryX=0.5;entryY=0;entryDx=0;entryDy=0;" edge="1" parent="1" source="8cE640ZSg2e-GYgHkVEG-85" target="8cE640ZSg2e-GYgHkVEG-89">
          <mxGeometry relative="1" as="geometry">
            <mxPoint x="-370" y="1210" as="sourcePoint" />
            <mxPoint x="-280" y="1260" as="targetPoint" />
          </mxGeometry>
        </mxCell>
        <mxCell id="8cE640ZSg2e-GYgHkVEG-93" value="" style="endArrow=none;html=1;rounded=0;exitX=0.5;exitY=1;exitDx=0;exitDy=0;entryX=1;entryY=0;entryDx=0;entryDy=0;" edge="1" parent="1" source="8cE640ZSg2e-GYgHkVEG-85" target="8cE640ZSg2e-GYgHkVEG-90">
          <mxGeometry relative="1" as="geometry">
            <mxPoint x="-370" y="1210" as="sourcePoint" />
            <mxPoint x="-490.0000000000002" y="1260" as="targetPoint" />
          </mxGeometry>
        </mxCell>
        <mxCell id="8cE640ZSg2e-GYgHkVEG-94" value="" style="edgeStyle=entityRelationEdgeStyle;fontSize=12;html=1;endArrow=ERmany;entryX=1;entryY=0.5;entryDx=0;entryDy=0;exitX=0.5;exitY=1;exitDx=0;exitDy=0;" edge="1" parent="1" source="8cE640ZSg2e-GYgHkVEG-31" target="8cE640ZSg2e-GYgHkVEG-85">
          <mxGeometry width="100" height="100" relative="1" as="geometry">
            <mxPoint x="-70" y="890" as="sourcePoint" />
            <mxPoint x="-110" y="1170" as="targetPoint" />
          </mxGeometry>
        </mxCell>
        <mxCell id="8cE640ZSg2e-GYgHkVEG-34" value="ПочтаПодтвержд" style="ellipse;whiteSpace=wrap;html=1;align=center;" vertex="1" parent="1">
          <mxGeometry x="30" y="760" width="100" height="40" as="geometry" />
        </mxCell>
        <mxCell id="8cE640ZSg2e-GYgHkVEG-40" value="SecurityStmp" style="ellipse;whiteSpace=wrap;html=1;align=center;" vertex="1" parent="1">
          <mxGeometry x="160" y="850" width="100" height="40" as="geometry" />
        </mxCell>
      </root>
    </mxGraphModel>
  </diagram>
</mxfile>
